REM DIRINDEX 1\2\6,1\2\7,1\2\8,1\2\9,1\3\10,1\3\11,1\4\12,1\4\13,1\4\14,1\5\15,1\5\16,1\5\17
REM DIRNAME folder01,folder02,folder03,folder04,folder05,folder06,folder07,folder08,folder09,folder10,folder11,folder12,folder13,folder14,folder15,folder16,folder17
TITLE ""
FILE "1900_3_106 sec19_1801_1817.mp3" MP3
  TRACK 01 AUDIO
    TITLE "0:"
    INDEX 01 00:00:00
  TRACK 02 AUDIO
    TITLE "15:cjc020_9587"
    INDEX 01 00:00:15
  TRACK 03 AUDIO
    TITLE "0:"
    INDEX 01 00:01:71
  TRACK 04 AUDIO
    TITLE "17:cjc020_9588"
    INDEX 01 00:03:00
  TRACK 05 AUDIO
    TITLE "0:"
    INDEX 01 00:04:35
  TRACK 06 AUDIO
    TITLE "16:cjc020_9589"
    INDEX 01 00:04:42
  TRACK 07 AUDIO
    TITLE "0:"
    INDEX 01 00:05:52
  TRACK 08 AUDIO
    TITLE "17:cjc020_9590"
    INDEX 01 00:06:39
  TRACK 09 AUDIO
    TITLE "0:"
    INDEX 01 00:07:54
  TRACK 10 AUDIO
    TITLE "16:cjc020_9591"
    INDEX 01 00:07:60
  TRACK 11 AUDIO
    TITLE "0:"
    INDEX 01 00:09:00
  TRACK 12 AUDIO
    TITLE "17:cjc020_9592"
    INDEX 01 00:09:59
  TRACK 13 AUDIO
    TITLE "0:"
    INDEX 01 00:11:03
  TRACK 14 AUDIO
    TITLE "16:cjc020_9593"
    INDEX 01 00:11:09
  TRACK 15 AUDIO
    TITLE "0:"
    INDEX 01 00:12:18
  TRACK 16 AUDIO
    TITLE "17:cjc020_9594"
    INDEX 01 00:13:06
  TRACK 17 AUDIO
    TITLE "0:"
    INDEX 01 00:15:36
  TRACK 18 AUDIO
    TITLE "16:cjc020_9595"
    INDEX 01 00:15:44
  TRACK 19 AUDIO
    TITLE "0:"
    INDEX 01 00:16:59
  TRACK 20 AUDIO
    TITLE "17:cjc020_9596"
    INDEX 01 00:17:43
  TRACK 21 AUDIO
    TITLE "0:"
    INDEX 01 00:18:66
  TRACK 22 AUDIO
    TITLE "16:cjc020_9597"
    INDEX 01 00:18:68
  TRACK 23 AUDIO
    TITLE "0:"
    INDEX 01 00:20:06
  TRACK 24 AUDIO
    TITLE "17:cjc020_9598"
    INDEX 01 00:20:69
  TRACK 25 AUDIO
    TITLE "0:"
    INDEX 01 00:22:03
  TRACK 26 AUDIO
    TITLE "16:cjc020_9599"
    INDEX 01 00:22:09
  TRACK 27 AUDIO
    TITLE "0:"
    INDEX 01 00:23:18
  TRACK 28 AUDIO
    TITLE "17:cjc020_9600"
    INDEX 01 00:24:02
  TRACK 29 AUDIO
    TITLE "0:"
    INDEX 01 00:26:42
  TRACK 30 AUDIO
    TITLE "16:cjc020_9601"
    INDEX 01 00:27:22
  TRACK 31 AUDIO
    TITLE "0:"
    INDEX 01 00:28:29
  TRACK 32 AUDIO
    TITLE "17:cjc020_9602"
    INDEX 01 00:29:11
  TRACK 33 AUDIO
    TITLE "0:"
    INDEX 01 00:30:34
  TRACK 34 AUDIO
    TITLE "16:cjc020_9603"
    INDEX 01 00:30:38
  TRACK 35 AUDIO
    TITLE "0:"
    INDEX 01 00:31:33
  TRACK 36 AUDIO
    TITLE "17:cjc020_9604"
    INDEX 01 00:32:21
  TRACK 37 AUDIO
    TITLE "0:"
    INDEX 01 00:33:52
  TRACK 38 AUDIO
    TITLE "16:cjc020_9605"
    INDEX 01 00:33:58
  TRACK 39 AUDIO
    TITLE "0:"
    INDEX 01 00:34:57
  TRACK 40 AUDIO
    TITLE "17:cjc020_9606"
    INDEX 01 00:35:45
  TRACK 41 AUDIO
    TITLE "0:"
    INDEX 01 00:37:12
  TRACK 42 AUDIO
    TITLE "16:cjc020_9607"
    INDEX 01 00:37:16
  TRACK 43 AUDIO
    TITLE "0:"
    INDEX 01 00:38:26
  TRACK 44 AUDIO
    TITLE "17:cjc020_9608"
    INDEX 01 00:39:09
  TRACK 45 AUDIO
    TITLE "0:"
    INDEX 01 00:40:38
  TRACK 46 AUDIO
    TITLE "16:cjc020_9609"
    INDEX 01 00:40:40
  TRACK 47 AUDIO
    TITLE "0:"
    INDEX 01 00:41:67
  TRACK 48 AUDIO
    TITLE "17:cjc020_9610"
    INDEX 01 00:42:53
  TRACK 49 AUDIO
    TITLE "0:"
    INDEX 01 00:44:03
  TRACK 50 AUDIO
    TITLE "16:cjc020_9611"
    INDEX 01 00:44:09
  TRACK 51 AUDIO
    TITLE "0:"
    INDEX 01 00:45:28
  TRACK 52 AUDIO
    TITLE "17:cjc020_9612"
    INDEX 01 00:46:11
  TRACK 53 AUDIO
    TITLE "0:"
    INDEX 01 00:47:30
  TRACK 54 AUDIO
    TITLE "16:cjc020_9613"
    INDEX 01 00:47:40
  TRACK 55 AUDIO
    TITLE "0:"
    INDEX 01 00:48:51
  TRACK 56 AUDIO
    TITLE "17:cjc020_9614"
    INDEX 01 00:49:39
  TRACK 57 AUDIO
    TITLE "0:"
    INDEX 01 00:51:42
  TRACK 58 AUDIO
    TITLE "16:cjc020_9615"
    INDEX 01 00:51:50
  TRACK 59 AUDIO
    TITLE "0:"
    INDEX 01 00:52:63
  TRACK 60 AUDIO
    TITLE "17:cjc020_9616"
    INDEX 01 00:53:49
  TRACK 61 AUDIO
    TITLE "0:"
    INDEX 01 00:54:66
  TRACK 62 AUDIO
    TITLE "16:cjc020_9617"
    INDEX 01 00:54:74
  TRACK 63 AUDIO
    TITLE "0:"
    INDEX 01 00:56:12
  TRACK 64 AUDIO
    TITLE "17:cjc020_9618"
    INDEX 01 00:56:69
  TRACK 65 AUDIO
    TITLE "0:"
    INDEX 01 01:01:29
  TRACK 66 AUDIO
    TITLE "16:cjc020_9619"
    INDEX 01 01:01:31
  TRACK 67 AUDIO
    TITLE "0:"
    INDEX 01 01:02:36
  TRACK 68 AUDIO
    TITLE "17:cjc020_9620"
    INDEX 01 01:03:20
  TRACK 69 AUDIO
    TITLE "0:"
    INDEX 01 01:04:48
  TRACK 70 AUDIO
    TITLE "16:cjc020_9621"
    INDEX 01 01:04:54
  TRACK 71 AUDIO
    TITLE "0:"
    INDEX 01 01:05:66
